<?xml version="1.0" encoding="UTF-8" standalone="no"?>
<!-- Created with Inkscape (http://www.inkscape.org/) -->

<svg
   xmlns:dc="http://purl.org/dc/elements/1.1/"
   xmlns:cc="http://creativecommons.org/ns#"
   xmlns:rdf="http://www.w3.org/1999/02/22-rdf-syntax-ns#"
   xmlns:svg="http://www.w3.org/2000/svg"
   xmlns="http://www.w3.org/2000/svg"
   xmlns:sodipodi="http://sodipodi.sourceforge.net/DTD/sodipodi-0.dtd"
   xmlns:inkscape="http://www.inkscape.org/namespaces/inkscape"
   width="123.44647mm"
   height="34.907299mm"
   viewBox="0 0 123.44647 34.907299"
   version="1.1"
   id="svg8"
   inkscape:version="0.92.2 5c3e80d, 2017-08-06"
   sodipodi:docname="cookie_crumble_logo_resize.svg">
  <defs
     id="defs2" />
  <sodipodi:namedview
     id="base"
     pagecolor="#ffffff"
     bordercolor="#666666"
     borderopacity="1.0"
     inkscape:pageopacity="0.0"
     inkscape:pageshadow="2"
     inkscape:zoom="0.98994949"
     inkscape:cx="288.02935"
     inkscape:cy="47.107367"
     inkscape:document-units="mm"
     inkscape:current-layer="layer1"
     showgrid="false"
     inkscape:window-width="1362"
     inkscape:window-height="723"
     inkscape:window-x="4"
     inkscape:window-y="1"
     inkscape:window-maximized="1"
     fit-margin-top="0"
     fit-margin-left="0"
     fit-margin-right="0"
     fit-margin-bottom="0" />
  <metadata
     id="metadata5">
    <rdf:RDF>
      <cc:Work
         rdf:about="">
        <dc:format>image/svg+xml</dc:format>
        <dc:type
           rdf:resource="http://purl.org/dc/dcmitype/StillImage" />
        <dc:title></dc:title>
      </cc:Work>
    </rdf:RDF>
  </metadata>
  <g
     inkscape:label="Layer 1"
     inkscape:groupmode="layer"
     id="layer1"
     transform="translate(-29.625569,-19.482047)">
    <g
       aria-label="Cookie"
       transform="matrix(0.26458333,0,0,0.26458333,17.907058,3.2072343)"
       style="font-style:normal;font-variant:normal;font-weight:normal;font-stretch:normal;font-size:40px;line-height:125%;font-family:LSTKClarendon;-inkscape-font-specification:LSTKClarendon;letter-spacing:0px;word-spacing:0px;fill:#000000;fill-opacity:1;stroke:none;stroke-width:1px;stroke-linecap:butt;stroke-linejoin:miter;stroke-opacity:1"
       id="flowRoot3707">
      <path
         d="m 74.093463,120.1991 c 0.298666,0.14933 1.418666,0.448 1.717333,0.448 0.149333,0 1.642666,-0.224 1.792,-0.224 h 0.224 c 0.672,0 1.269333,0.224 1.866666,0.224 0.373334,0 0.597334,0 1.045334,-0.224 0.746666,0.0747 1.493333,0.0747 2.314666,0.0747 1.717334,0 3.509334,-0.14934 5.077333,-0.896 0.672,-0.29867 4.032,-1.86667 4.704,-2.24 0.896,-0.59734 3.658667,-2.83734 4.106667,-3.73334 l 2.837333,-5.89866 c 0.896005,-1.86667 1.269335,-5.00267 1.269335,-6.86934 0,-2.090662 -1.642668,-3.061329 -3.584002,-3.061329 -0.746666,0 -1.269333,0.07467 -2.165333,0.224 -0.298666,0.224 -0.522666,0.522667 -0.597333,0.821334 l -0.448,3.733335 c -0.149333,1.04533 -1.269333,1.86666 -1.269333,2.76266 0,0.224 0,0.37334 0.07467,0.52267 -1.194666,2.38933 -2.538666,4.62933 -4.928,5.97333 -0.746666,0.37334 -1.642666,0.672 -2.314666,1.19467 -1.12,0.224 -2.090667,0.224 -3.136,0.224 h -1.642667 -1.792 l -0.821333,-0.224 c -0.149333,0 -3.061333,-1.49333 -4.106666,-2.016 -0.07467,-0.0747 -0.746667,-0.59733 -0.821334,-0.672 -2.688,-1.792 -5.450666,-3.136 -6.794666,-6.34667 -0.821333,-2.016 -0.597333,-4.330662 -1.418667,-6.346662 -0.224,-2.762667 -0.448,-5.226666 -0.448,-7.84 0,-5.749333 2.837333,-11.349333 7.018667,-15.157333 0.896,-0.821333 1.642666,-0.970666 2.464,-1.642666 1.792,-1.418667 3.135999,-2.090667 5.525333,-2.090667 3.210666,0 7.391999,1.493334 9.482666,3.882667 0.373333,0.746666 2.090667,4.032 2.464,4.778666 0.821333,1.418667 1.269333,2.613334 1.642667,4.256 0.522666,1.941333 4.554666,3.136 5.973333,3.136 0.895994,0 1.343994,-0.746667 1.642664,-1.493333 v -1.12 c 0,-3.061333 0.448,-6.048 0.448,-9.184 0,-1.418666 -0.224,-2.762666 -0.224,-4.106666 0,-1.717334 0.37333,-3.434667 0.37333,-5.077334 0,-0.522666 -0.14933,-1.567999 -0.82133,-1.642666 h -2.239998 -1.717333 c -0.970666,0 -2.016,0.07467 -2.837333,0.597333 -0.746667,0.522667 -0.896,2.688 -1.568,2.688 -1.493333,0 -2.837333,-1.418667 -3.957333,-2.090667 C 86.5628,64.423133 84.7708,63.900466 82.5308,63.303133 c -0.522667,0 -1.045334,0.07467 -1.493334,0.07467 -2.912,0 -5.226666,-0.522666 -8.138666,-0.522666 -5.077333,0 -7.690666,1.568 -11.946666,4.181333 -1.12,0.672 -2.314667,0.896 -3.434667,1.642666 -2.837333,1.866667 -5.002666,4.704 -7.018666,7.392 -0.224,1.568 -1.493334,4.032 -1.866667,5.525333 -0.896,3.733333 -1.418666,7.541333 -1.418666,11.424 v 1.344 c 0.07467,0.746666 0.448,6.197331 0.597333,7.765331 0.448,5.07733 4.704,8.88533 8.661333,11.49866 0.896,0.59734 5.002666,3.21067 5.973333,3.73334 0.896,1.19466 3.061333,2.09066 4.48,2.24 z"
         style="font-size:74.66666412px"
         id="path3723"
         inkscape:connector-curvature="0" />
      <path
         d="m 101.1718,99.591101 c 0,3.583999 1.26933,6.197329 2.688,9.333329 0.74666,1.792 0.97066,2.83734 2.24,4.55467 2.76266,3.808 13.21599,5.74933 17.17333,5.74933 2.38933,0 3.95733,-0.0747 6.64533,-0.224 5.30133,-1.04533 8.58667,-5.6 11.94667,-9.408 0,-0.0747 0.14933,-0.37333 0.14933,-0.448 0.29867,-0.52266 1.12,-2.688 1.26933,-3.06133 0,-0.0747 0.59734,-1.792 0.59734,-2.09067 v -4.703995 c 0,-0.07467 -0.14934,-0.672 -0.224,-0.821334 0,-0.298666 -0.14934,-2.762666 -0.14934,-3.061333 -0.82133,-5.002666 -2.464,-8.661333 -5.6,-12.543999 0,-0.07467 -0.29866,-0.373334 -0.37333,-0.373334 -4.032,-2.613333 -7.84,-4.778666 -12.69333,-4.778666 -4.85334,0 -11.34933,2.389333 -15.008,5.6 -0.14933,0.07467 -0.97067,0.895999 -1.04533,0.970666 -0.52267,0.448 -1.49334,0.224 -1.86667,0.821333 -0.0747,0.149334 -0.52267,1.045334 -0.59733,1.269334 -0.0747,0.07467 -0.224,0.522666 -0.224,0.597333 -2.24,3.882667 -4.928,7.989333 -4.928,12.618666 z m 15.232,2.389329 c 0,-0.29866 -0.0747,-1.568 -0.0747,-1.86666 0,-4.554669 1.41867,-8.362668 3.136,-12.544002 0.74666,-1.866666 1.792,-3.061333 3.88266,-3.061333 4.85334,0 5.6,3.285333 6.34667,7.168 0.672,3.285333 0.896,6.496 0.896,9.781335 0,4.62933 -0.672,11.648 -6.57067,11.648 -3.43466,0 -6.12266,-3.95734 -6.79466,-7.01867 -0.37333,-1.568 -0.29867,-2.61333 -0.82133,-4.10667 z"
         style="font-size:74.66666412px"
         id="path3725"
         inkscape:connector-curvature="0" />
      <path
         d="m 142.73429,99.591101 c 0,3.583999 1.26934,6.197329 2.688,9.333329 0.74667,1.792 0.97067,2.83734 2.24,4.55467 2.76267,3.808 13.216,5.74933 17.17333,5.74933 2.38934,0 3.95734,-0.0747 6.64534,-0.224 5.30133,-1.04533 8.58666,-5.6 11.94666,-9.408 0,-0.0747 0.14934,-0.37333 0.14934,-0.448 0.29866,-0.52266 1.12,-2.688 1.26933,-3.06133 0,-0.0747 0.59733,-1.792 0.59733,-2.09067 v -4.703995 c 0,-0.07467 -0.14933,-0.672 -0.224,-0.821334 0,-0.298666 -0.14933,-2.762666 -0.14933,-3.061333 -0.82133,-5.002666 -2.464,-8.661333 -5.6,-12.543999 0,-0.07467 -0.29867,-0.373334 -0.37333,-0.373334 -4.032,-2.613333 -7.84,-4.778666 -12.69334,-4.778666 -4.85333,0 -11.34933,2.389333 -15.008,5.6 -0.14933,0.07467 -0.97066,0.895999 -1.04533,0.970666 -0.52267,0.448 -1.49333,0.224 -1.86667,0.821333 -0.0747,0.149334 -0.52266,1.045334 -0.59733,1.269334 -0.0747,0.07467 -0.224,0.522666 -0.224,0.597333 -2.24,3.882667 -4.928,7.989333 -4.928,12.618666 z m 15.232,2.389329 c 0,-0.29866 -0.0747,-1.568 -0.0747,-1.86666 0,-4.554669 1.41867,-8.362668 3.136,-12.544002 0.74667,-1.866666 1.792,-3.061333 3.88267,-3.061333 4.85333,0 5.6,3.285333 6.34667,7.168 0.672,3.285333 0.896,6.496 0.896,9.781335 0,4.62933 -0.672,11.648 -6.57067,11.648 -3.43467,0 -6.12267,-3.95734 -6.79467,-7.01867 -0.37333,-1.568 -0.29866,-2.61333 -0.82133,-4.10667 z"
         style="font-size:74.66666412px"
         id="path3727"
         inkscape:connector-curvature="0" />
      <path
         d="m 214.31279,118.55643 c 0.29867,0 1.19467,-0.0747 2.16533,-0.0747 1.19467,0 2.53867,0.0747 2.98667,0.0747 0.224,0 2.09067,0.14934 2.688,0.14934 1.344,0.14933 2.464,0.448 3.88267,0.448 h 1.41866 c 0.59734,0 5.00267,-0.448 5.6,-0.448 3.28534,-0.224 4.48,0 4.48,-3.95734 0,-2.76266 -0.52266,-2.38933 -2.464,-3.584 -1.64266,-1.04533 -3.808,-2.31466 -4.928,-3.95733 -0.224,-0.29867 -1.86666,-3.28533 -2.016,-3.65867 -0.0747,-0.14933 -0.37333,-0.59733 -0.448,-0.672 -0.224,-0.224 -2.09066,-2.16533 -2.24,-2.464 -1.19466,-1.642662 -2.09066,-4.106662 -2.09066,-6.122662 v -0.821333 c 2.83733,-3.658667 6.19733,-6.197333 10.67733,-7.018667 0.14933,0 0.59733,-0.149333 0.672,-0.224 0.37333,-0.224 0.672,-0.597333 0.82133,-0.970666 0.14934,-0.597334 0.82134,-2.090667 0.82134,-2.912 0,-2.613333 -2.688,-2.688 -4.62934,-2.688 h -0.29866 c -0.224,0 -2.09067,0.224 -2.31467,0.224 h -7.616 c -2.464,0.522667 -5.30133,0.597333 -7.84,0.597333 -1.04533,0 -1.94133,-0.821333 -2.912,-0.821333 -0.82133,0 -1.26933,0.373333 -1.792,1.045333 v 1.269334 c 0,1.12 0,1.866666 0.224,3.061333 0.59733,3.210666 7.46667,0.970666 7.46667,3.136 0,1.344 -3.95734,3.584 -5.152,4.48 -0.59734,0.373333 -5.00267,3.658666 -5.6,4.106666 -0.52267,0.373333 -0.74667,0.672 -1.344,0.672 -0.448,0 -0.37334,-0.149333 -0.52267,-0.672 -0.224,-1.194667 -0.224,-2.016 -0.224,-3.061333 v -1.792 c 0,-7.093333 0.59733,-14.186666 0.896,-21.279999 0.0747,-0.896 0.37333,-1.792 0.37333,-2.762667 0,-1.642667 -0.29866,-3.509333 -2.24,-3.808 -1.12,-0.224 -4.928,-0.746666 -5.376,-0.821333 h -2.24 c -1.568,-0.224 -3.06133,-1.045333 -4.77866,-1.045333 -1.26934,0 -2.09067,0.373333 -3.21067,0.821333 -2.688,0.970667 -2.912,2.986666 -2.912,5.749333 v 1.045333 c 1.19467,1.045334 2.83733,1.045334 4.33067,1.045334 1.344,1.045333 1.12,2.538666 1.19466,4.106666 0.52267,7.317333 0.52267,14.410666 0.672,21.802666 0,0.896 0.37334,8.288002 0.37334,9.258662 v 1.04534 c 0,5.824 -4.62933,1.568 -5.74933,5.30133 v 1.568 c 0,3.136 0.448,3.95733 3.73333,4.40533 h 0.29866 0.29867 c 0.14933,0 0.29867,0.0747 0.59733,0.224 h 11.49867 c 1.41867,-0.37333 3.36,-0.82133 4.77867,-0.82133 0.52266,0 0.896,0.37333 1.41866,0.37333 1.568,0 3.28534,-1.792 3.28534,-3.28533 0,-2.53867 -1.04534,-3.88267 -3.36,-3.88267 h -0.52267 c -0.97067,-0.59733 -1.49333,-1.86666 -1.49333,-2.98666 0,-0.896 0.0747,-1.792 0.82133,-2.38934 0.37333,-0.29866 2.38933,-1.86666 2.912,-2.24 0.37333,-0.29866 0.448,-0.448 0.82133,-0.448 0.672,0 4.928,6.42134 4.928,7.01867 0,1.12 -2.688,1.19467 -2.688,2.688 v 4.928 c 0,0.74667 1.41867,0.97067 1.86667,1.04533 z"
         style="font-size:74.66666412px"
         id="path3729"
         inkscape:connector-curvature="0" />
      <path
         d="m 248.28379,116.98843 c 1.71733,0 3.36,0.672 5.00267,0.672 0.97066,0 1.792,-0.59733 2.688,-0.59733 0.29866,0 1.04533,-0.0747 1.86666,-0.0747 0.97067,0 2.09067,0.0747 2.464,0.0747 h 0.14934 c 1.86666,0 2.09066,-3.21067 2.09066,-5.30133 v -1.41867 -1.49333 c -0.82133,-3.136 -5.52533,-1.04534 -5.97333,-4.33067 -0.0747,-0.82133 -0.37333,-4.554665 -0.37333,-5.375999 v -0.672 c 0,-5.599999 0.37333,-11.274666 0.37333,-16.949332 v -1.344 c 0,-0.224 0,-0.373334 0,-0.448 0,-0.07467 0,-0.149334 0,-0.149334 -0.0747,-1.269333 -1.26933,-1.418666 -2.16533,-1.418666 -2.09067,0 -4.18134,0.448 -6.272,0.448 -3.21067,0 -6.42134,-0.672 -9.632,-0.672 h -2.09067 c -2.09066,0.224 -2.24,2.837333 -2.24,4.554666 v 0.597334 c 0,1.493333 0.448,2.314666 2.016,2.314666 1.04533,0 2.016,-0.298667 3.06133,-0.298667 h 0.29867 c 0.896,0 1.64267,0.07467 1.792,1.045334 0.224,1.194666 1.04533,6.869333 1.04533,8.063999 v 0.597334 2.090666 c 0,3.210669 0,5.226669 -0.224,8.586669 -0.14933,0.52266 -1.344,2.98666 -2.016,2.98666 h -2.912 c -1.19466,0 -1.64266,2.16534 -1.64266,2.98667 0,0.74667 0.224,1.26933 0.224,2.016 0,0.896 -1.04533,1.19467 -1.04533,1.94133 0,1.49334 2.016,2.016 3.13599,2.016 1.04534,0 2.09067,-0.224 3.136,-0.224 0.896,0 1.64267,0.224 2.53867,0.224 1.568,0 3.136,-0.448 4.704,-0.448 z m -6.496,-48.309328 c 0,1.866667 0.14933,4.181334 2.09067,5.152 1.568,0.821333 2.688,1.493333 4.48,1.493333 2.09066,0 4.704,-1.269333 5.97333,-2.911999 0.74667,-1.045334 1.04533,-2.24 1.64267,-3.285334 0,-0.224 0.0747,-1.344 0.0747,-1.568 0,-4.927999 -3.50933,-6.047999 -7.76533,-6.047999 -3.88267,0 -6.496,3.583999 -6.496,7.167999 z"
         style="font-size:74.66666412px"
         id="path3731"
         inkscape:connector-curvature="0" />
      <path
         d="m 278.79795,116.98843 c 3.43467,0.448 6.12267,0.82134 9.33334,0.82134 2.24,0 6.19733,-0.896 7.98933,-2.09067 2.98667,-2.016 6.944,-6.19733 6.944,-10.15467 v -1.12 c -1.12,-1.568 -1.49333,-1.04533 -3.28533,-1.26933 -0.224,0 -2.24,-0.37333 -2.464,-0.37333 h -0.224 c -3.136,0 -2.24,2.61333 -3.65867,4.10666 -1.71733,1.86667 -2.76267,3.28534 -5.22667,3.28534 -2.912,0 -4.33066,-0.224 -6.72,-1.86667 -3.36,-2.24 -4.10666,-2.24 -4.10666,-6.86933 v -1.344 c 0.0747,-0.298669 0.37333,-0.597335 0.59733,-0.821335 h 4.77867 c 0.14933,0 1.04533,-0.149334 1.19466,-0.224 1.568,0.07467 3.136,0.07467 4.704,0.07467 4.032,0 7.98934,-0.149333 11.94667,-0.224 0.448,0 2.31467,-0.149333 2.688,-0.224 1.12,-0.298666 1.49333,-1.866666 1.49333,-2.837333 0,-4.330666 -1.04533,-8.736 -3.73333,-12.170666 -1.04533,-1.269333 -1.792,-2.613333 -3.136,-3.509333 -0.29867,-0.224 -2.912,-2.016 -3.28533,-2.24 0,-0.07467 -0.29867,-0.224 -0.37334,-0.224 -1.71733,-0.597334 -3.43466,-0.821334 -5.152,-1.194667 -1.568,-0.373333 -2.98666,-0.672 -4.62933,-0.672 -2.61333,0 -4.62933,1.642667 -7.09333,2.090667 -0.224,0 -2.24,0.149333 -2.464,0.224 -1.04534,0.149333 -1.04534,0.522666 -1.86667,0.970666 -0.224,0.149334 -2.24,1.269334 -2.464,1.493334 -3.95733,2.912 -7.392,11.573333 -7.392,16.501332 0,5.151995 2.76267,14.410665 7.84,17.173325 0.224,0.14934 2.38933,1.04534 3.06133,1.26934 1.49334,0.52266 3.136,1.04533 4.704,1.41866 z m 0,-25.461328 c -0.224,-0.298667 -0.224,-0.448 -0.224,-0.746667 0,-1.941333 1.41867,-4.330667 2.912,-5.450667 0.59734,-0.448 1.64267,-0.448 2.38934,-0.448 h 0.224 c 3.28533,0 5.67466,3.210667 5.67466,6.346667 0,0.149333 -0.0747,0.448 -0.0747,0.448 l -0.59734,0.224 h -1.344 c -2.98666,0 -5.89866,-0.149333 -8.96,-0.373333 z"
         style="font-size:74.66666412px"
         id="path3733"
         inkscape:connector-curvature="0" />
    </g>
    <g
       aria-label="CRUMBLE"
       transform="matrix(0.26458333,0,0,0.26458333,16.303441,9.0871639)"
       style="font-style:normal;font-variant:normal;font-weight:normal;font-stretch:normal;font-size:40px;line-height:125%;font-family:LSTKClarendon;-inkscape-font-specification:LSTKClarendon;letter-spacing:0px;word-spacing:0px;fill:#000000;fill-opacity:1;stroke:none;stroke-width:1px;stroke-linecap:butt;stroke-linejoin:miter;stroke-opacity:1"
       id="flowRoot3715">
      <path
         d="m 81.071381,170.70885 c 0.341333,0.17067 1.621334,0.512 1.962667,0.512 0.170667,0 1.877333,-0.256 2.048,-0.256 h 0.256 c 0.768,0 1.450667,0.256 2.133333,0.256 0.426667,0 0.682667,0 1.194667,-0.256 0.853333,0.0853 1.706667,0.0853 2.645333,0.0853 1.962667,0 4.010667,-0.17067 5.802667,-1.024 0.768,-0.34134 4.608002,-2.13334 5.376002,-2.56 1.024,-0.68267 4.18133,-3.24267 4.69333,-4.26667 l 3.24267,-6.74133 c 1.024,-2.13334 1.45067,-5.71734 1.45067,-7.85067 0,-2.38934 -1.87734,-3.49867 -4.096,-3.49867 -0.85334,0 -1.45067,0.0853 -2.47467,0.256 -0.34133,0.256 -0.59733,0.59733 -0.68267,0.93867 l -0.512,4.26666 c -0.17066,1.19467 -1.45066,2.13334 -1.45066,3.15734 0,0.256 0,0.42667 0.0853,0.59733 -1.36533,2.73067 -2.901335,5.29067 -5.632002,6.82667 -0.853333,0.42667 -1.877333,0.768 -2.645333,1.36533 -1.28,0.256 -2.389334,0.256 -3.584,0.256 h -1.877334 -2.048 l -0.938666,-0.256 c -0.170667,0 -3.498667,-1.70666 -4.693334,-2.304 -0.08533,-0.0853 -0.853333,-0.68266 -0.938667,-0.768 -3.072,-2.048 -6.229333,-3.584 -7.765333,-7.25333 -0.938667,-2.304 -0.682667,-4.94934 -1.621333,-7.25334 -0.256,-3.15733 -0.512,-5.97333 -0.512,-8.96 0,-6.57066 3.242666,-12.97066 8.021333,-17.32266 1.024,-0.93867 1.877333,-1.10934 2.816,-1.87734 2.048,-1.62133 3.584,-2.38933 6.314667,-2.38933 3.669333,0 8.448,1.70667 10.837334,4.43733 0.426666,0.85334 2.389338,4.608 2.815998,5.46134 0.93867,1.62133 1.45067,2.98666 1.87734,4.864 0.59733,2.21866 5.20533,3.584 6.82666,3.584 1.024,0 1.536,-0.85334 1.87734,-1.70667 v -1.28 c 0,-3.49867 0.512,-6.912 0.512,-10.496 0,-1.62133 -0.256,-3.15733 -0.256,-4.69333 0,-1.96267 0.42666,-3.92534 0.42666,-5.80267 0,-0.59733 -0.17066,-1.792 -0.93866,-1.87733 h -2.56 -1.96267 c -1.10933,0 -2.304,0.0853 -3.24267,0.68266 -0.85333,0.59734 -1.024,3.072 -1.792,3.072 -1.70666,0 -3.242665,-1.62133 -4.522665,-2.38933 -2.218667,-1.28 -4.266667,-1.87733 -6.826667,-2.56 -0.597333,0 -1.194667,0.0853 -1.706667,0.0853 -3.328,0 -5.973333,-0.59733 -9.301333,-0.59733 -5.802667,0 -8.789334,1.792 -13.653334,4.77867 -1.28,0.768 -2.645333,1.024 -3.925333,1.87733 -3.242667,2.13333 -5.717334,5.376 -8.021334,8.448 -0.256,1.792 -1.706667,4.608 -2.133333,6.31467 -1.024,4.26666 -1.621334,8.61866 -1.621334,13.056 v 1.536 c 0.08533,0.85333 0.512,7.08266 0.682667,8.87466 0.512,5.80267 5.376,10.15467 9.898667,13.14134 1.024,0.68267 5.717333,3.66933 6.826667,4.26667 1.024,1.36533 3.498667,2.38933 5.12,2.56 z"
         style="font-size:85.33333588px"
         id="path3736"
         inkscape:connector-curvature="0" />
      <path
         d="m 155.96472,151.33819 c 0.34133,0.768 0.42666,1.62133 0.42666,2.47466 0,1.19467 -0.17066,2.47467 -0.17066,3.66934 0,0.85333 0.0853,1.70666 0.42666,2.56 2.38934,5.54666 6.99734,10.32533 13.48267,10.32533 5.12,0 10.06933,-2.98667 13.312,-6.82667 2.13333,-2.47466 2.56,-7.68 2.56,-10.66666 0,-2.04801 -2.38933,-2.98667 -4.096,-2.98667 -1.19467,0 -1.36533,0.93866 -1.536,1.87733 -0.0853,0.68267 -0.42667,3.84 -0.42667,4.52267 -0.512,0.93867 -1.28,2.56 -2.64533,2.56 -3.072,0 -2.816,-7.08267 -2.98667,-8.704 -0.17066,-1.28 -0.68266,-5.12 -0.768,-5.376 0,-0.0853 -0.512,-1.87734 -0.68266,-2.56 -0.768,-2.73067 -3.328,-3.66934 -3.328,-6.05867 0,-0.0853 0,-0.68267 0.0853,-0.768 1.87733,-2.13333 4.608,-3.84 6.31467,-6.144 0.0853,-0.17067 0.85333,-1.87733 0.93866,-2.13333 0.512,-1.19467 1.19467,-1.536 1.19467,-2.816 v -9.81334 c 0,-3.15733 -6.912,-7.50933 -9.216,-8.27733 -1.96267,-0.68267 -5.29067,-1.10933 -7.50933,-1.10933 h -0.256 -1.19467 c -1.28,0 -3.15733,0 -3.66933,0.0853 h -0.93867 c -4.01067,0 -7.936,0.34133 -11.86133,0.34133 -3.15734,0 -6.22934,-0.256 -9.38667,-0.256 -2.048,0 -4.01067,0.256 -6.05867,0.256 -3.328,0 -6.656,-0.512 -9.984,-0.512 -0.42666,0 -2.64533,0.0853 -3.15733,0.0853 -2.21867,0.93866 -1.792,1.536 -2.56,3.49866 v 4.01067 c 0,1.96267 8.27733,-1.024 8.87467,4.69333 0,0.59734 0.0853,3.41334 0.0853,4.01067 0,3.92533 -0.512,7.85067 -0.512,11.776 0,1.70667 0.256,3.49867 0.256,5.20533 v 0.17067 c -0.0853,0.17067 -0.256,0.93867 -0.256,1.10933 v 15.78667 c 0,4.77867 -8.704,1.87734 -8.704,6.31467 v 0.68267 c 0,0.17066 0.256,0.85333 0.256,0.93866 v 0.256 1.45067 c 0,1.10933 0.17066,2.13333 1.19466,2.56 0.59734,0.256 2.73067,0.256 3.66934,0.256 h 0.17066 c 2.30401,0 4.43734,-0.768 6.65601,-0.768 2.47466,0 4.864,0.768 7.25333,0.768 4.94933,0 9.81333,-0.512 14.76267,-0.512 h 1.024 c 1.36533,-1.10933 1.70666,-2.13333 1.70666,-4.096 0,-4.94933 -6.912,-3.24267 -8.704,-6.912 -1.024,-2.13333 -1.28,-5.29067 -1.28,-8.10667 0,-1.536 0.0853,-2.90133 0.0853,-4.096 v -4.26667 c 0.42666,-0.59733 1.45066,-0.68266 2.048,-0.68266 1.36533,0 2.64533,0.256 3.92533,0.256 1.792,0 3.66933,-0.256 5.46133,-0.256 5.03467,0 5.80267,5.888 5.80267,10.24 0,0.68266 -0.0853,1.36533 -0.0853,1.96267 z m -17.152,-21.41867 v -3.75467 -3.75467 c 0,-0.42666 0.17066,-3.75466 0.256,-4.18133 0,-0.512 -0.0853,-1.19467 -0.0853,-1.87733 0,-1.45067 0.256,-3.072 1.96267,-3.072 h 0.17067 c 0.59733,0.0853 4.864,0.85333 5.46133,0.93866 4.77867,0.59734 8.10667,-0.256 10.752,4.69334 0.34133,0.512 0.93867,1.87733 0.93867,1.87733 v 4.69333 c 0,5.376 -7.08267,5.46134 -10.58134,5.888 -0.0853,0 -1.024,0.256 -1.10933,0.256 -0.512,0.0853 -1.96267,0.17067 -2.13333,0.17067 -1.62134,0 -4.69334,-0.256 -5.632,-1.87733 z"
         style="font-size:85.33333588px"
         id="path3738"
         inkscape:connector-curvature="0" />
      <path
         d="m 194.02206,157.82352 c 0.512,0.68267 3.15733,4.01067 3.75466,4.69333 4.352,5.20534 10.06934,5.29067 16.46934,6.144 0.256,0 2.90133,0.42667 3.24266,0.42667 2.21867,0.17067 4.864,0.256 7.168,0.256 4.18134,0 5.63201,-1.87733 9.30134,-3.328 0.0853,0 0.42667,-0.17067 0.42667,-0.17067 5.46133,-4.77866 10.06933,-9.728 10.41066,-17.408 0.0853,-1.28 0.17067,-6.99733 0.17067,-8.27733 0.256,-0.768 0.256,-1.45067 0.256,-2.21867 0,-0.768 0,-1.536 0.256,-2.21867 v -4.94933 c 0,-4.52267 -0.0853,-8.87467 -0.68267,-13.39733 v -0.0853 c 0,-1.62133 1.792,-3.84 3.49867,-3.84 h 3.49867 c 0.768,0 1.36533,-0.85333 1.62133,-1.45066 0.0853,-0.59734 0.256,-3.584 0.256,-4.26667 v -0.0853 c 0,-0.768 -1.024,-1.45067 -1.62133,-1.792 -6.4,-1.10934 -12.71467,-1.19467 -19.11467,-1.19467 -0.68267,0 -3.84,0.0853 -4.94933,0.0853 h -0.17067 -0.0853 c -3.24267,0 -3.41334,3.15734 -3.41334,5.80267 0,5.54667 9.216,0.768 9.216,6.05867 0,2.38933 -0.34133,4.69333 -0.34133,7.08266 0,2.56 0.42667,5.03467 0.512,7.59467 0.256,5.03467 0.512,10.32533 0.512,15.36 0,2.73067 -0.42667,6.4 -1.19467,9.30134 0,0.0853 -0.17066,0.42666 -0.256,0.512 -0.256,0.256 -1.70666,1.87733 -2.13333,2.304 -1.19467,1.28 -1.70667,2.048 -3.49867,2.56 -0.256,0 -1.70667,0.0853 -1.96267,0.0853 -3.24266,0 -6.4,-0.68267 -9.55733,-1.19467 -0.17067,-0.0853 -0.85333,-0.256 -0.93867,-0.256 -3.75466,-1.87733 -3.75466,-7.59466 -3.75466,-11.17867 0,-0.93866 0.256,-1.792 0.256,-2.73066 0,-2.21867 -0.34134,-4.608 -0.512,-6.82667 -0.256,-2.98667 -0.256,-6.22933 -0.256,-9.38667 v -4.69333 -9.13067 c 0.68266,-0.85333 2.048,-1.45066 3.15733,-1.45066 1.28,0 2.38933,0.768 3.584,0.768 1.19467,0 2.21867,-0.85334 2.21867,-2.13334 v -5.888 c 0,-2.47466 -3.84,-2.56 -5.376,-2.56 h -1.87734 -5.80266 -0.34134 c -5.12,0 -10.15466,-0.768 -15.27466,-0.768 -2.304,0 -3.41334,0 -5.888,0.512 -0.85334,0.256 -1.19467,1.10934 -1.36534,1.87734 -0.0853,1.45066 -0.256,3.41333 -0.256,5.03466 0,1.024 0.93867,2.21867 2.13334,2.21867 h 6.99733 l 0.256,0.768 c 0,0 0.0853,1.19467 0.0853,1.62133 0,9.55734 -1.024,19.2 -1.024,28.84267 0,3.66933 0.42667,10.06934 2.38934,12.97067 z"
         style="font-size:85.33333588px"
         id="path3740"
         inkscape:connector-curvature="0" />
      <path
         d="m 305.41139,165.67419 c 0,0.512 -0.0853,1.10933 -0.0853,1.792 0,1.36533 0.256,2.816 1.792,2.816 0.0853,0 0.59734,-0.17067 0.68267,-0.256 h 12.45867 c 5.97333,-1.10934 12.11733,-0.68267 18.09066,-1.87734 0.93867,-0.42666 1.10934,-1.70666 1.10934,-2.90133 0,-0.68267 -0.0853,-1.36533 -0.0853,-1.70667 0,-0.34133 -0.0853,-2.21866 -0.0853,-2.64533 -0.512,-1.45067 -1.62133,-0.93867 -2.816,-1.19467 -0.768,-0.17066 -1.87733,-1.28 -2.304,-1.62133 -0.34133,-0.256 -2.048,-1.45067 -2.38933,-1.70667 -0.512,-0.68266 -0.68267,-1.792 -0.68267,-2.73066 0,-3.24267 0.42667,-6.57067 0.42667,-9.81334 v -0.0853 c 0,-1.96267 -0.17067,-6.74134 -0.17067,-6.82667 -0.0853,-0.256 -0.256,-1.87733 -0.256,-2.13333 -0.0853,-5.20534 -0.256,-10.496 -0.256,-15.70134 v -2.13333 c 0.34133,-2.13333 4.01067,-2.38933 6.144,-2.38933 h 1.10933 c 0.42667,-0.256 1.19467,-1.10934 1.19467,-1.62134 v -5.632 c 0,-0.768 -1.62133,-1.45066 -1.87733,-1.45066 h -7.936 c -0.17067,0 -1.024,-0.17067 -1.19467,-0.256 h -0.0853 -0.17067 c -0.256,0.0853 -2.56,0.256 -2.816,0.256 h -6.74133 c -0.85334,0 -1.62134,0 -2.13334,0 -0.17066,0 -0.42666,0 -0.512,0 -1.10933,0.0853 -6.05866,0.59733 -7.08266,0.768 -0.768,0.34133 -1.87734,0.0853 -2.56,0.68266 -2.38934,1.87734 -2.73067,7.33867 -3.49867,9.81334 -0.85333,2.56 -2.13333,5.03466 -2.90133,7.59466 -1.45067,4.864 -2.73067,9.81334 -4.69334,14.50667 l -0.0853,0.0853 -0.0853,-0.0853 c -0.93867,-0.68267 -1.62134,-2.048 -1.87734,-2.98667 l -5.71733,-20.224 c -0.68267,-2.38933 -1.36533,-4.43733 -1.87733,-6.82666 -0.0853,-0.768 -1.45067,-1.36534 -1.87734,-1.62134 -0.0853,-0.0853 -0.768,-0.68266 -0.93866,-0.768 -0.0853,-0.0853 -0.42667,-0.17066 -0.42667,-0.17066 h -4.01067 c -0.34133,0.17066 -0.68266,0.17066 -1.024,0.17066 h -1.024 c -2.47466,0 -4.864,-0.34133 -7.08266,-0.93866 h -1.62134 c -2.64533,0 -5.12,-0.256 -7.85066,-0.256 -2.73067,0 -5.376,0.768 -8.10667,0.768 h -0.768 c -0.85333,0.59733 -1.19467,1.36533 -1.19467,2.38933 v 0.68267 c 0,0.256 0.256,2.304 0.256,2.56 0.0853,1.45066 -0.0853,2.38933 1.70667,2.38933 1.024,0 1.96267,-0.34133 2.98667,-0.34133 1.36533,0 4.77866,0.256 5.376,1.96266 0.0853,3.328 0.256,7.59467 0.256,11.264 0,6.22934 0,12.62934 -0.512,18.77334 0,0.256 -0.42667,2.38933 -0.42667,2.64533 v 2.38933 c 0,1.62134 0.256,3.07201 0.256,4.60801 0,5.71733 -4.352,4.69333 -8.704,4.94933 -0.512,0 -0.68267,0.59733 -0.68267,0.93867 0,0.256 -0.0853,0.85333 -0.0853,1.45066 0,0.59734 0,1.19467 0.0853,1.36534 -0.34133,0.34133 -0.34133,0.85333 -0.34133,1.28 0,1.536 0.768,2.47466 2.304,2.47466 h 0.0853 c 0.34134,0 2.56,-0.17066 2.816,-0.256 h 0.17067 0.0853 c 0.59734,0.0853 5.12,0.256 5.632,0.256 h 0.68267 c 1.70667,0 3.49867,-0.256 5.20533,-0.256 2.048,0 3.92534,0.256 5.888,0.256 3.49867,0 5.632,-0.93866 5.632,-4.864 0,-2.816 -1.87733,-3.072 -3.84,-3.072 h -1.36533 c -1.792,0 -3.328,-0.17066 -3.49867,-2.13333 -0.256,-2.56 -0.512,-4.352 -0.512,-6.57067 0,-3.66933 0.34134,-7.424 0.512,-11.09333 0.34134,-6.144 0.512,-12.032 1.45067,-18.09067 4.096,7.08267 6.22933,19.11467 7.936,26.79467 v 0.256 c 0,1.10933 0.768,2.64533 0.93867,3.49867 1.28,5.20533 2.98666,10.15466 5.20533,15.01866 0.17067,0.42667 0.68267,0.512 1.024,0.512 1.024,0 1.96267,-0.512 2.98667,-0.512 1.10933,0 2.13333,0.0853 3.24266,0.256 0.59734,0.0853 1.024,0.512 1.70667,0.512 h 0.17067 c 0.256,-0.0853 1.70666,-0.42666 1.87733,-0.512 1.62133,-0.17066 2.64533,0.34134 3.072,-1.87733 0.17067,-0.93867 0.768,-5.54667 0.93867,-6.57067 0.17066,-0.68266 0.59733,-2.98666 0.68266,-3.328 0.0853,-0.17066 0.93867,-1.45066 1.024,-1.62133 1.70667,-4.69334 2.98667,-9.728 4.43734,-14.592 0.0853,-0.17067 0.256,-1.792 0.68266,-2.304 0.42667,-1.19467 2.048,-6.57067 2.38934,-7.76534 0.59733,-2.21866 1.70666,-8.78933 4.69333,-8.78933 v 18.176 c 0,0.256 0.34133,0.93867 0.42667,1.19467 v 5.376 c -1.024,2.56 -1.28,5.376 -1.28,8.192 0,0.93867 0,1.96267 0.0853,2.90133 -0.68267,1.28 -0.93867,2.21867 -2.56,2.56 -0.93867,0.256 -4.69333,-0.34133 -4.94933,1.45067 -0.17067,1.45067 -0.256,3.072 -0.256,4.52267 z"
         style="font-size:85.33333588px"
         id="path3742"
         inkscape:connector-curvature="0" />
      <path
         d="m 353.19805,168.23419 c 3.15733,0 6.31466,0.768 9.472,0.768 1.28,0 2.47466,-0.512 3.75466,-0.512 1.536,0 2.98667,0.512 4.52267,0.512 4.52267,0 8.61867,-0.768 13.056,-1.19467 1.87734,-0.17067 3.49867,0 5.12,-1.19467 0.0853,0 1.536,-1.28 2.13334,-1.87733 0,0 0.17066,-0.17067 0.256,-0.17067 0.17066,-0.17066 0.85333,-0.68266 0.93866,-0.768 l 2.304,-1.10933 c 2.64534,-1.792 4.69334,-7.168 4.69334,-10.24 0,-3.41334 -0.512,-4.01067 -1.62134,-6.74134 -0.59733,-1.536 -0.768,-3.072 -1.87733,-4.43733 -0.256,-0.34133 -2.304,-2.73067 -2.56,-3.072 -0.0853,0 -0.42667,-0.59733 -0.512,-0.68267 -0.768,-0.59733 -2.56,-0.93866 -2.56,-2.304 0,-0.512 0.17067,-1.024 0.42667,-1.45066 3.072,-2.47467 3.92533,-5.03467 5.20533,-8.448 0.0853,-0.256 1.10933,-2.56 1.19467,-2.816 v -0.59734 c 0,-2.56 -0.768,-3.75466 -1.70667,-5.97333 -0.512,-1.10933 -0.512,-2.38933 -1.36533,-3.328 -0.256,-0.256 -1.536,-1.536 -1.87734,-1.87733 -4.18133,-3.84 -7.85066,-4.52267 -13.14133,-5.12 -1.792,-0.17067 -3.49867,-0.768 -5.29067,-0.768 -1.87733,0 -3.66933,0.256 -5.54667,0.256 -2.048,0 -3.75466,-0.68267 -5.71733,-0.68267 -4.608,0 -9.13067,0.93867 -13.73867,0.93867 -2.47466,0 -5.03466,-0.512 -7.59466,-0.512 -0.68267,0 -1.36534,0.256 -2.048,0.256 h -0.256 c -0.34134,0.17066 -1.62134,1.024 -1.87734,1.19466 -0.17066,0.0853 -0.512,0.512 -0.512,0.68267 v 4.01067 c 0,0.34133 0.68267,2.304 1.45067,2.304 h 5.888 c 0.34133,0 0.68267,1.024 0.68267,1.19466 0,2.048 -0.0853,4.18134 -0.0853,6.4 0,3.328 0.0853,6.82667 0.34134,10.06934 0.17066,2.56 0.42666,5.03466 0.42666,7.59466 v 2.048 c -0.0853,0.768 -0.85333,6.74134 -0.93866,7.50934 -0.34134,3.15733 -0.17067,6.48533 -0.42667,9.64267 -0.0853,1.36533 -1.19467,1.536 -2.56,1.536 h -1.28 c -2.38933,0 -5.12,0.42666 -5.12,5.888 v 1.70666 c 0.59733,1.28 3.584,1.024 4.43733,1.19467 0.256,0 1.96267,0.42667 2.13334,0.42667 0.256,0.0853 4.352,0.256 5.888,0.256 h 0.85333 0.42667 c 0.42666,0 0.68266,0 1.28,-0.42667 0.512,0 2.816,-0.0853 3.328,-0.0853 z m 9.64266,-14.76267 v -12.62934 c 0,-1.28 1.536,-1.70666 2.56,-1.70666 h 0.256 l 7.936,0.768 c 5.20534,0.512 7.08267,5.97333 7.08267,10.32533 0,2.13334 -1.36533,3.84 -2.816,5.12 -2.816,2.56 -6.74133,2.90134 -10.32533,2.90134 -0.68267,0 -2.47467,-0.0853 -2.64534,-0.0853 -0.59733,0 -1.536,-0.0853 -1.62133,-0.93866 z m -0.256,-24.74667 v -1.536 c 0,-0.512 0.256,-4.864 0.256,-5.376 0,-1.28 -0.256,-2.98667 -0.256,-4.52267 0,-2.13333 0.512,-4.01066 3.072,-4.01066 0.85334,0 1.70667,0.42666 2.56,0.512 3.75467,0.256 8.27734,-0.42667 10.06934,3.75466 0.17066,1.792 0.768,4.096 0.768,6.05867 0,5.20533 -8.61867,8.02133 -12.544,8.02133 h -0.42667 c -0.59733,0 -2.38933,-0.17066 -2.56,-0.256 -0.85333,-0.0853 -0.93867,-1.024 -0.93867,-1.792 z"
         style="font-size:85.33333588px"
         id="path3744"
         inkscape:connector-curvature="0" />
      <path
         d="m 450.27807,167.97819 c 0.93867,0.768 5.03467,1.45066 6.144,1.45066 0.768,0 1.45067,-0.93866 1.62133,-1.62133 v -3.75467 c 0,-3.24266 -0.256,-6.4 -0.256,-9.64266 0,-2.816 0.256,-5.54667 0.256,-8.36267 v -1.792 c -0.256,-0.256 -0.512,-0.59734 -0.93866,-0.68267 h -1.28 c -1.19467,0 -2.304,0.256 -3.41334,0.256 -0.59733,0 -1.10933,-0.256 -1.792,-0.256 -1.96266,0 -2.21866,2.048 -2.21866,4.01067 0,0.68266 0.0853,1.36533 0.0853,1.96266 0,0.42667 0,0.768 -0.0853,1.10934 0,0.17066 -0.42667,1.87733 -0.42667,2.13333 -0.0853,0.256 -0.256,1.536 -0.256,1.87734 -0.512,0.512 -3.15733,3.15733 -3.75467,3.75466 -1.10933,0.93867 -2.47466,1.28 -3.75466,1.87734 h -4.43734 -3.49867 c -0.34133,0 -0.68266,0 -0.85333,0 -0.0853,0 -0.17067,0 -0.17067,0 -1.10933,-0.0853 -6.57066,-0.17067 -7.68,-0.256 -0.34133,-0.256 -0.59733,-0.59734 -0.768,-0.93867 v -1.45067 c 0,-1.62133 0.42667,-2.98666 0.512,-4.69333 0.34134,-9.13067 0.59734,-18.26134 1.36534,-27.47734 0.17066,-1.70666 0.93866,-3.41333 0.93866,-5.20533 v -0.68267 l 1.45067,-3.24266 c 0.0853,-0.256 0.93867,-1.10934 1.36533,-1.19467 0.59734,0 3.41334,-0.17067 4.01067,-0.256 2.21867,-0.17067 2.048,-3.84 2.38934,-5.376 v -0.0853 c 0,-0.85334 -1.10934,-1.792 -1.87734,-1.792 -1.36533,-0.0853 -7.424,-0.42667 -8.704,-0.512 -0.256,0 -1.62133,-0.17067 -1.87733,-0.17067 -0.0853,0 -0.68267,-0.256 -0.68267,-0.256 -4.43733,-0.256 -8.96,-0.17067 -13.39733,-0.512 -0.512,0 -4.69334,-0.59733 -5.20534,-0.68267 h -0.68266 c -5.97334,0 -4.77867,1.28 -5.888,6.82667 v 0.256 c 0,2.048 7.08266,1.19467 8.192,2.13333 1.792,1.36534 3.072,3.75467 3.072,6.05867 v 22.784 c 0,1.19467 0.512,1.96267 0.512,2.98667 0,2.304 -0.256,4.352 -0.256,6.48533 v 0.85334 c -1.10934,1.45066 -0.68267,2.47466 -1.19467,4.01066 -0.85333,2.73067 -3.072,3.24267 -5.46133,3.24267 -1.19467,0 -2.47467,-0.17067 -3.66934,-0.17067 -0.512,0.0853 -1.19466,0.42667 -1.19466,1.024 v 0.17067 c 0.0853,0.68267 0.59733,3.92533 0.68266,4.69333 0.34134,1.10934 1.10934,1.87734 2.304,1.87734 h 0.768 c 0.93867,-0.0853 8.87467,-0.68267 9.89867,-0.768 h 0.0853 c 0.0853,0 0.0853,0 0.17067,0 1.70667,0 8.704,0.256 9.55733,0.256 h 0.256 c 1.87734,0 3.75467,-0.256 5.632,-0.256 2.90134,0 5.80267,0.512 8.70401,0.512 4.352,0 8.87466,-0.512 13.22666,-0.512 z"
         style="font-size:85.33333588px"
         id="path3746"
         inkscape:connector-curvature="0" />
      <path
         d="m 453.51807,162.51685 v 0.34134 c 0.0853,0.59733 0.42666,2.90133 0.512,3.328 0.256,1.62133 2.13333,1.792 3.49866,1.87733 h 0.0853 c 0,0 0.0853,0 0.17066,0 h 3.15734 1.024 c 2.47466,0 4.18133,0.93867 6.57066,1.10933 0,0 0.0853,0 0.17067,0 0.0853,0 0.256,0 0.512,0 h 2.048 0.0853 c 1.024,0 1.536,0.512 2.47467,0.512 h 2.56 c 1.70667,0 3.49867,-0.0853 5.12,-0.512 h 6.22933 c 4.09601,0 7.85067,0.512 11.86134,0.512 1.024,0 1.96267,-0.256 3.072,-0.256 h 0.93867 c 0.512,0 1.024,0 1.36533,0.256 h 2.21867 2.21866 c 0.59734,0 3.24267,0 3.75467,-0.512 0.34133,-0.256 1.62133,-1.10933 1.62133,-1.96266 v -0.0853 c 0.42667,-4.18133 1.024,-9.30133 1.024,-13.65333 0,-2.98667 -0.0853,-6.57067 -0.768,-9.38667 -0.17066,-0.85333 -1.36533,-0.93867 -2.304,-0.93867 h -1.19466 -1.87734 c -2.56,1.024 -1.792,4.608 -2.13333,6.82667 -0.0853,0.59733 -0.42667,2.38934 -0.42667,2.56 -0.34133,1.19467 -2.64533,4.94934 -3.584,5.632 -1.28,1.024 -3.41333,0.42667 -4.69333,1.45067 h -2.47467 c -1.70666,0 -3.328,-0.256 -5.03466,-0.256 -1.79201,0 -3.41334,0.93867 -5.20534,0.93867 h -0.42667 c -0.512,0 -2.98666,-0.17067 -3.49866,-0.256 -0.93867,-0.256 -1.62134,-1.45067 -1.62134,-2.304 v -10.83734 c 0,-0.17067 0.17067,-0.768 0.17067,-0.93867 0.0853,-0.42666 0.42667,-2.56 0.512,-3.072 0.42667,-0.59733 1.10933,-0.68266 1.792,-0.68266 h 0.512 c 11.264,0 4.69333,8.61866 9.38667,9.13067 0.17067,0 2.816,0.256 3.84,0.256 h 0.256 c 2.21867,0 2.56,-3.58401 2.73067,-4.94934 0,-0.0853 0.512,-5.03467 0.512,-6.99733 v -0.0853 -0.17066 c 0,-0.256 0.17066,-2.304 0.256,-2.56 v -3.584 -3.49867 c -1.62134,-5.20533 1.024,-7.50933 -5.80267,-7.50933 h -1.96267 c -0.59733,0.17066 -1.536,1.19466 -1.70666,1.36533 v 0.68267 c 0,5.20533 -2.81601,7.168 -7.68001,7.168 -0.34133,0 -1.792,-0.0853 -2.13333,-0.0853 -0.68267,-0.17066 -1.024,-0.68266 -1.19467,-1.36533 -0.0853,-0.59733 -0.42666,-2.816 -0.42666,-3.328 v -0.256 c 0,-1.024 0.17066,-4.26667 0.17066,-4.69333 v -0.59734 c 0,-0.93866 -0.256,-1.792 -0.256,-2.64533 0,-0.93867 0.0853,-3.49867 1.024,-3.75467 0.256,0 1.792,-0.0853 2.048,-0.0853 3.328,0 6.656,0.17067 9.89867,1.024 0.0853,0 0.59734,0.256 0.68267,0.256 4.096,0.34133 9.984,0.68267 12.71467,4.18133 0.93866,1.28 1.024,3.49867 1.19466,4.94934 0,0.59733 0.17067,3.41333 0.17067,4.01066 0.34133,1.28 1.87733,1.45067 3.15733,1.45067 h 1.36534 c 1.70666,0 2.90133,-0.0853 3.49866,-1.96267 0.42667,-3.584 1.45067,-6.57066 1.45067,-10.24 0,-0.42666 0,-1.62133 -0.0853,-1.70666 0,-0.256 -0.17067,-1.87734 -0.17067,-2.13334 0,-0.42666 0.42667,-3.84 0.42667,-4.18133 v -1.36533 -1.28 c -0.34134,-1.19467 -1.87734,-1.45067 -3.328,-1.45067 -0.93867,0 -1.96267,0.0853 -2.56,0.0853 -0.93867,0 -8.87467,-0.256 -9.81334,-0.256 h -5.632 c -0.34133,0 -2.73066,-0.42666 -3.072,-0.512 h -1.36533 c -2.13334,0 -4.18134,0.512 -6.4,0.512 -3.41334,0 -6.74134,-0.68266 -10.15467,-0.68266 h -1.792 c -2.56,0 -14.16533,0.768 -16.72533,0.93866 -1.19467,0.0853 -1.70667,0.34134 -2.304,1.36534 -0.0853,0.68266 -0.256,3.584 -0.256,4.26666 v 0.68267 c 0,1.62133 1.62133,1.45067 2.816,2.13333 0.768,0.42667 1.10933,0.768 1.87733,0.93867 0.85333,0.17067 2.816,-0.17067 3.328,0.68267 0.59733,1.10933 0.68267,3.75466 0.68267,4.69333 0,1.70667 -0.17067,9.81333 -0.17067,11.52 v 1.45067 c 0,3.24266 0,13.90933 -0.0853,15.27466 0,1.10934 -0.34134,5.88801 -0.42667,6.74134 -0.0853,0.42667 -0.59733,2.47467 -0.768,2.816 0,0.0853 -0.17067,0.256 -0.17067,0.256 -1.96266,0.93867 -3.41333,0.93867 -5.632,0.93867 -1.28,0.34133 -1.45066,1.28 -1.45066,2.47466 z"
         style="font-size:85.33333588px"
         id="path3748"
         inkscape:connector-curvature="0" />
    </g>
  </g>
</svg>
