<?xml version="1.0" encoding="UTF-8" standalone="no"?>
<!-- Created with Inkscape (http://www.inkscape.org/) -->

<svg
   xmlns:dc="http://purl.org/dc/elements/1.1/"
   xmlns:cc="http://creativecommons.org/ns#"
   xmlns:rdf="http://www.w3.org/1999/02/22-rdf-syntax-ns#"
   xmlns:svg="http://www.w3.org/2000/svg"
   xmlns="http://www.w3.org/2000/svg"
   xmlns:sodipodi="http://sodipodi.sourceforge.net/DTD/sodipodi-0.dtd"
   xmlns:inkscape="http://www.inkscape.org/namespaces/inkscape"
   width="99.194916mm"
   height="32.474697mm"
   viewBox="0 0 99.194916 32.474697"
   version="1.1"
   id="svg8"
   inkscape:version="0.92.2 5c3e80d, 2017-08-06"
   sodipodi:docname="cookie_crumble_logo_resize.svg">
  <defs
     id="defs2" />
  <sodipodi:namedview
     id="base"
     pagecolor="#ffffff"
     bordercolor="#666666"
     borderopacity="1.0"
     inkscape:pageopacity="0.0"
     inkscape:pageshadow="2"
     inkscape:zoom="0.98994949"
     inkscape:cx="167.41595"
     inkscape:cy="-60.214783"
     inkscape:document-units="mm"
     inkscape:current-layer="flowRoot20"
     showgrid="false"
     fit-margin-top="0"
     fit-margin-left="0"
     fit-margin-right="0"
     fit-margin-bottom="0"
     inkscape:window-width="1362"
     inkscape:window-height="723"
     inkscape:window-x="4"
     inkscape:window-y="1"
     inkscape:window-maximized="1" />
  <metadata
     id="metadata5">
    <rdf:RDF>
      <cc:Work
         rdf:about="">
        <dc:format>image/svg+xml</dc:format>
        <dc:type
           rdf:resource="http://purl.org/dc/dcmitype/StillImage" />
        <dc:title></dc:title>
      </cc:Work>
    </rdf:RDF>
  </metadata>
  <g
     inkscape:label="Layer 1"
     inkscape:groupmode="layer"
     id="layer1"
     transform="translate(-29.836256,-54.267127)">
    <flowRoot
       xml:space="preserve"
       id="flowRoot10"
       style="font-style:normal;font-variant:normal;font-weight:normal;font-stretch:normal;font-size:42.66666794px;line-height:125%;font-family:LSTKClarendon;-inkscape-font-specification:LSTKClarendon;letter-spacing:0px;word-spacing:0px;fill:#000000;fill-opacity:1;stroke:none;stroke-width:1px;stroke-linecap:butt;stroke-linejoin:miter;stroke-opacity:1"
       transform="scale(0.26458333)"><flowRegion
         id="flowRegion12"
         style="font-size:42.66666794px"><rect
           id="rect14"
           width="362.85715"
           height="120"
           x="117.14286"
           y="262.51968"
           style="font-size:42.66666794px" /></flowRegion><flowPara
         id="flowPara16" /></flowRoot>    <g
       aria-label="Cookie"
       transform="scale(0.26458333)"
       style="font-style:normal;font-variant:normal;font-weight:normal;font-stretch:normal;font-size:64px;line-height:125%;font-family:LSTKClarendon;-inkscape-font-specification:LSTKClarendon;letter-spacing:0px;word-spacing:0px;fill:#000000;fill-opacity:1;stroke:none;stroke-width:1px;stroke-linecap:butt;stroke-linejoin:miter;stroke-opacity:1"
       id="flowRoot20">
      <path
         d="m 135.80695,255.4081 c 0.256,0.128 1.216,0.384 1.472,0.384 0.128,0 1.408,-0.192 1.536,-0.192 h 0.192 c 0.576,0 1.088,0.192 1.6,0.192 0.32,0 0.512,0 0.896,-0.192 0.64,0.064 1.28,0.064 1.984,0.064 1.472,0 3.008,-0.128 4.352,-0.768 0.576,-0.256 3.456,-1.6 4.032,-1.92 0.768,-0.512 3.136,-2.432 3.52,-3.2 l 2.432,-5.056 c 0.768,-1.6 1.088,-4.288 1.088,-5.888 0,-1.792 -1.408,-2.624 -3.072,-2.624 -0.64,0 -1.088,0.064 -1.856,0.192 -0.256,0.192 -0.448,0.448 -0.512,0.704 l -0.384,3.2 c -0.128,0.896 -1.088,1.6 -1.088,2.368 0,0.192 0,0.32 0.064,0.448 -1.024,2.048 -2.176,3.968 -4.224,5.12 -0.64,0.32 -1.408,0.576 -1.984,1.024 -0.96,0.192 -1.792,0.192 -2.688,0.192 h -1.408 -1.536 l -0.704,-0.192 c -0.128,0 -2.624,-1.28 -3.52,-1.728 -0.064,-0.064 -0.64,-0.512 -0.704,-0.576 -2.304,-1.536 -4.672,-2.688 -5.824,-5.44 -0.704,-1.728 -0.512,-3.712 -1.216,-5.44 -0.192,-2.368 -0.384,-4.48 -0.384,-6.72 0,-4.928 2.432,-9.728 6.016,-12.992 0.768,-0.704 1.408,-0.832 2.112,-1.408 1.536,-1.216 2.688,-1.792 4.736,-1.792 2.752,0 6.336,1.28 8.128,3.328 0.32,0.64 1.792,3.456 2.112,4.096 0.704,1.216 1.088,2.24 1.408,3.648 0.448,1.664 3.904,2.688 5.12,2.688 0.768,0 1.152,-0.64 1.408,-1.28 v -0.96 c 0,-2.624 0.384,-5.184 0.384,-7.872 0,-1.216 -0.192,-2.368 -0.192,-3.52 0,-1.472 0.32,-2.944 0.32,-4.352 0,-0.448 -0.128,-1.344 -0.704,-1.408 h -1.92 -1.472 c -0.832,0 -1.728,0.064 -2.432,0.512 -0.64,0.448 -0.768,2.304 -1.344,2.304 -1.28,0 -2.432,-1.216 -3.392,-1.792 -1.664,-0.96 -3.2,-1.408 -5.12,-1.92 -0.448,0 -0.896,0.064 -1.28,0.064 -2.496,0 -4.48,-0.448 -6.976,-0.448 -4.352,0 -6.592,1.344 -10.24,3.584 -0.96,0.576 -1.984,0.768 -2.944,1.408 -2.432,1.6 -4.288,4.032 -6.016,6.336 -0.192,1.344 -1.28,3.456 -1.6,4.736 -0.768,3.2 -1.216,6.464 -1.216,9.792 v 1.152 c 0.064,0.64 0.384,5.312 0.512,6.656 0.384,4.352 4.032,7.616 7.424,9.856 0.768,0.512 4.288,2.752 5.12,3.2 0.768,1.024 2.624,1.792 3.84,1.92 z"
         style="fill:#ffffff"
         id="path36" />
      <path
         d="m 159.01695,237.7441 c 0,3.072 1.088,5.312 2.304,8 0.64,1.536 0.832,2.432 1.92,3.904 2.368,3.264 11.328,4.928 14.72,4.928 2.048,0 3.392,-0.064 5.696,-0.192 4.544,-0.896 7.36,-4.8 10.24,-8.064 0,-0.064 0.128,-0.32 0.128,-0.384 0.256,-0.448 0.96,-2.304 1.088,-2.624 0,-0.064 0.512,-1.536 0.512,-1.792 v -4.032 c 0,-0.064 -0.128,-0.576 -0.192,-0.704 0,-0.256 -0.128,-2.368 -0.128,-2.624 -0.704,-4.288 -2.112,-7.424 -4.8,-10.752 0,-0.064 -0.256,-0.32 -0.32,-0.32 -3.456,-2.24 -6.72,-4.096 -10.88,-4.096 -4.16,0 -9.728,2.048 -12.864,4.8 -0.128,0.064 -0.832,0.768 -0.896,0.832 -0.448,0.384 -1.28,0.192 -1.6,0.704 -0.064,0.128 -0.448,0.896 -0.512,1.088 -0.064,0.064 -0.192,0.448 -0.192,0.512 -1.92,3.328 -4.224,6.848 -4.224,10.816 z m 13.056,2.048 c 0,-0.256 -0.064,-1.344 -0.064,-1.6 0,-3.904 1.216,-7.168 2.688,-10.752 0.64,-1.6 1.536,-2.624 3.328,-2.624 4.16,0 4.8,2.816 5.44,6.144 0.576,2.816 0.768,5.568 0.768,8.384 0,3.968 -0.576,9.984 -5.632,9.984 -2.944,0 -5.248,-3.392 -5.824,-6.016 -0.32,-1.344 -0.256,-2.24 -0.704,-3.52 z"
         style="fill:#ffffff"
         id="path38" />
      <path
         d="m 194.64195,237.7441 c 0,3.072 1.088,5.312 2.304,8 0.64,1.536 0.832,2.432 1.92,3.904 2.368,3.264 11.328,4.928 14.72,4.928 2.048,0 3.392,-0.064 5.696,-0.192 4.544,-0.896 7.36,-4.8 10.24,-8.064 0,-0.064 0.128,-0.32 0.128,-0.384 0.256,-0.448 0.96,-2.304 1.088,-2.624 0,-0.064 0.512,-1.536 0.512,-1.792 v -4.032 c 0,-0.064 -0.128,-0.576 -0.192,-0.704 0,-0.256 -0.128,-2.368 -0.128,-2.624 -0.704,-4.288 -2.112,-7.424 -4.8,-10.752 0,-0.064 -0.256,-0.32 -0.32,-0.32 -3.456,-2.24 -6.72,-4.096 -10.88,-4.096 -4.16,0 -9.728,2.048 -12.864,4.8 -0.128,0.064 -0.832,0.768 -0.896,0.832 -0.448,0.384 -1.28,0.192 -1.6,0.704 -0.064,0.128 -0.448,0.896 -0.512,1.088 -0.064,0.064 -0.192,0.448 -0.192,0.512 -1.92,3.328 -4.224,6.848 -4.224,10.816 z m 13.056,2.048 c 0,-0.256 -0.064,-1.344 -0.064,-1.6 0,-3.904 1.216,-7.168 2.688,-10.752 0.64,-1.6 1.536,-2.624 3.328,-2.624 4.16,0 4.8,2.816 5.44,6.144 0.576,2.816 0.768,5.568 0.768,8.384 0,3.968 -0.576,9.984 -5.632,9.984 -2.944,0 -5.248,-3.392 -5.824,-6.016 -0.32,-1.344 -0.256,-2.24 -0.704,-3.52 z"
         style="fill:#ffffff"
         id="path40" />
      <path
         d="m 255.99495,254.0001 c 0.256,0 1.024,-0.064 1.856,-0.064 1.024,0 2.176,0.064 2.56,0.064 0.192,0 1.792,0.128 2.304,0.128 1.152,0.128 2.112,0.384 3.328,0.384 h 1.216 c 0.512,0 4.288,-0.384 4.8,-0.384 2.816,-0.192 3.84,0 3.84,-3.392 0,-2.368 -0.448,-2.048 -2.112,-3.072 -1.408,-0.896 -3.264,-1.984 -4.224,-3.392 -0.192,-0.256 -1.6,-2.816 -1.728,-3.136 -0.064,-0.128 -0.32,-0.512 -0.384,-0.576 -0.192,-0.192 -1.792,-1.856 -1.92,-2.112 -1.024,-1.408 -1.792,-3.52 -1.792,-5.248 v -0.704 c 2.432,-3.136 5.312,-5.312 9.152,-6.016 0.128,0 0.512,-0.128 0.576,-0.192 0.32,-0.192 0.576,-0.512 0.704,-0.832 0.128,-0.512 0.704,-1.792 0.704,-2.496 0,-2.24 -2.304,-2.304 -3.968,-2.304 h -0.256 c -0.192,0 -1.792,0.192 -1.984,0.192 h -6.528 c -2.112,0.448 -4.544,0.512 -6.72,0.512 -0.896,0 -1.664,-0.704 -2.496,-0.704 -0.704,0 -1.088,0.32 -1.536,0.896 v 1.088 c 0,0.96 0,1.6 0.192,2.624 0.512,2.752 6.4,0.832 6.4,2.688 0,1.152 -3.392,3.072 -4.416,3.84 -0.512,0.32 -4.288,3.136 -4.8,3.52 -0.448,0.32 -0.64,0.576 -1.152,0.576 -0.384,0 -0.32,-0.128 -0.448,-0.576 -0.192,-1.024 -0.192,-1.728 -0.192,-2.624 v -1.536 c 0,-6.08 0.512,-12.16 0.768,-18.24 0.064,-0.768 0.32,-1.536 0.32,-2.368 0,-1.408 -0.256,-3.008 -1.92,-3.264 -0.96,-0.192 -4.224,-0.64 -4.608,-0.704 h -1.92 c -1.344,-0.192 -2.624,-0.896 -4.096,-0.896 -1.088,0 -1.792,0.32 -2.752,0.704 -2.304,0.832 -2.496,2.56 -2.496,4.928 v 0.896 c 1.024,0.896 2.432,0.896 3.712,0.896 1.152,0.896 0.96,2.176 1.024,3.52 0.448,6.272 0.448,12.352 0.576,18.688 0,0.768 0.32,7.104 0.32,7.936 v 0.896 c 0,4.992 -3.968,1.344 -4.928,4.544 v 1.344 c 0,2.688 0.384,3.392 3.2,3.776 h 0.256 0.256 c 0.128,0 0.256,0.064 0.512,0.192 h 9.856 c 1.216,-0.32 2.88,-0.704 4.096,-0.704 0.448,0 0.768,0.32 1.216,0.32 1.344,0 2.816,-1.536 2.816,-2.816 0,-2.176 -0.896,-3.328 -2.88,-3.328 h -0.448 c -0.832,-0.512 -1.28,-1.6 -1.28,-2.56 0,-0.768 0.064,-1.536 0.704,-2.048 0.32,-0.256 2.048,-1.6 2.496,-1.92 0.32,-0.256 0.384,-0.384 0.704,-0.384 0.576,0 4.224,5.504 4.224,6.016 0,0.96 -2.304,1.024 -2.304,2.304 v 4.224 c 0,0.64 1.216,0.832 1.6,0.896 z"
         style="fill:#ffffff"
         id="path42" />
      <path
         d="m 285.11295,252.6561 c 1.472,0 2.88,0.576 4.288,0.576 0.832,0 1.536,-0.512 2.304,-0.512 0.256,0 0.896,-0.064 1.6,-0.064 0.832,0 1.792,0.064 2.112,0.064 h 0.128 c 1.6,0 1.792,-2.752 1.792,-4.544 v -1.216 -1.28 c -0.704,-2.688 -4.736,-0.896 -5.12,-3.712 -0.064,-0.704 -0.32,-3.904 -0.32,-4.608 v -0.576 c 0,-4.8 0.32,-9.664 0.32,-14.528 v -1.152 c 0,-0.192 0,-0.32 0,-0.384 0,-0.064 0,-0.128 0,-0.128 -0.064,-1.088 -1.088,-1.216 -1.856,-1.216 -1.792,0 -3.584,0.384 -5.376,0.384 -2.752,0 -5.504,-0.576 -8.256,-0.576 h -1.792 c -1.792,0.192 -1.92,2.432 -1.92,3.904 v 0.512 c 0,1.28 0.384,1.984 1.728,1.984 0.896,0 1.728,-0.256 2.624,-0.256 h 0.256 c 0.768,0 1.408,0.064 1.536,0.896 0.192,1.024 0.896,5.888 0.896,6.912 v 0.512 1.792 c 0,2.752 0,4.48 -0.192,7.36 -0.128,0.448 -1.152,2.56 -1.728,2.56 h -2.496 c -1.024,0 -1.408,1.856 -1.408,2.56 0,0.64 0.192,1.088 0.192,1.728 0,0.768 -0.896,1.024 -0.896,1.664 0,1.28 1.728,1.728 2.688,1.728 0.896,0 1.792,-0.192 2.688,-0.192 0.768,0 1.408,0.192 2.176,0.192 1.344,0 2.688,-0.384 4.032,-0.384 z m -5.568,-41.408 c 0,1.6 0.128,3.584 1.792,4.416 1.344,0.704 2.304,1.28 3.84,1.28 1.792,0 4.032,-1.088 5.12,-2.496 0.64,-0.896 0.896,-1.92 1.408,-2.816 0,-0.192 0.064,-1.152 0.064,-1.344 0,-4.224 -3.008,-5.184 -6.656,-5.184 -3.328,0 -5.568,3.072 -5.568,6.144 z"
         style="fill:#ffffff"
         id="path44" />
      <path
         d="m 311.26795,252.6561 c 2.944,0.384 5.248,0.704 8,0.704 1.92,0 5.312,-0.768 6.848,-1.792 2.56,-1.728 5.952,-5.312 5.952,-8.704 v -0.96 c -0.96,-1.344 -1.28,-0.896 -2.816,-1.088 -0.192,0 -1.92,-0.32 -2.112,-0.32 h -0.192 c -2.688,0 -1.92,2.24 -3.136,3.52 -1.472,1.6 -2.368,2.816 -4.48,2.816 -2.496,0 -3.712,-0.192 -5.76,-1.6 -2.88,-1.92 -3.52,-1.92 -3.52,-5.888 v -1.152 c 0.064,-0.256 0.32,-0.512 0.512,-0.704 h 4.096 c 0.128,0 0.896,-0.128 1.024,-0.192 1.344,0.064 2.688,0.064 4.032,0.064 3.456,0 6.848,-0.128 10.24,-0.192 0.384,0 1.984,-0.128 2.304,-0.192 0.96,-0.256 1.28,-1.6 1.28,-2.432 0,-3.712 -0.896,-7.488 -3.2,-10.432 -0.896,-1.088 -1.536,-2.24 -2.688,-3.008 -0.256,-0.192 -2.496,-1.728 -2.816,-1.92 0,-0.064 -0.256,-0.192 -0.32,-0.192 -1.472,-0.512 -2.944,-0.704 -4.416,-1.024 -1.344,-0.32 -2.56,-0.576 -3.968,-0.576 -2.24,0 -3.968,1.408 -6.08,1.792 -0.192,0 -1.92,0.128 -2.112,0.192 -0.896,0.128 -0.896,0.448 -1.6,0.832 -0.192,0.128 -1.92,1.088 -2.112,1.28 -3.392,2.496 -6.336,9.92 -6.336,14.144 0,4.416 2.368,12.352 6.72,14.72 0.192,0.128 2.048,0.896 2.624,1.088 1.28,0.448 2.688,0.896 4.032,1.216 z m 0,-21.824 c -0.192,-0.256 -0.192,-0.384 -0.192,-0.64 0,-1.664 1.216,-3.712 2.496,-4.672 0.512,-0.384 1.408,-0.384 2.048,-0.384 h 0.192 c 2.816,0 4.864,2.752 4.864,5.44 0,0.128 -0.064,0.384 -0.064,0.384 l -0.512,0.192 h -1.152 c -2.56,0 -5.056,-0.128 -7.68,-0.32 z"
         style="fill:#ffffff"
         id="path46" />
    </g>
    <g
       aria-label="Crumble"
       transform="matrix(0.26458333,0,0,0.26458333,-0.53453911,-18.976136)"
       style="font-style:normal;font-variant:normal;font-weight:normal;font-stretch:normal;font-size:85.33333588px;line-height:125%;font-family:LSTKClarendon;-inkscape-font-specification:LSTKClarendon;letter-spacing:0px;word-spacing:0px;fill:#ffffff;fill-opacity:1;stroke:none;stroke-width:1px;stroke-linecap:butt;stroke-linejoin:miter;stroke-opacity:1"
       id="flowRoot28">
      <path
         d="m 145.71982,399.05195 c 0.34133,0.17067 1.62133,0.512 1.96267,0.512 0.17066,0 1.87733,-0.256 2.048,-0.256 h 0.256 c 0.768,0 1.45066,0.256 2.13333,0.256 0.42667,0 0.68267,0 1.19467,-0.256 0.85333,0.0853 1.70666,0.0853 2.64533,0.0853 1.96267,0 4.01067,-0.17067 5.80267,-1.024 0.768,-0.34134 4.608,-2.13334 5.376,-2.56 1.024,-0.68267 4.18133,-3.24267 4.69333,-4.26667 l 3.24267,-6.74134 c 1.024,-2.13333 1.45066,-5.71733 1.45066,-7.85066 0,-2.38934 -1.87733,-3.49867 -4.096,-3.49867 -0.85333,0 -1.45066,0.0853 -2.47466,0.256 -0.34134,0.256 -0.59734,0.59733 -0.68267,0.93867 l -0.512,4.26666 c -0.17067,1.19467 -1.45067,2.13334 -1.45067,3.15734 0,0.256 0,0.42666 0.0853,0.59733 -1.36534,2.73067 -2.90134,5.29067 -5.632,6.82667 -0.85334,0.42667 -1.87734,0.768 -2.64534,1.36533 -1.28,0.256 -2.38933,0.256 -3.584,0.256 h -1.87733 -2.048 l -0.93867,-0.256 c -0.17066,0 -3.49866,-1.70666 -4.69333,-2.304 -0.0853,-0.0853 -0.85333,-0.68266 -0.93867,-0.768 -3.072,-2.048 -6.22933,-3.584 -7.76533,-7.25333 -0.93867,-2.304 -0.68267,-4.94934 -1.62133,-7.25334 -0.256,-3.15733 -0.512,-5.97333 -0.512,-8.96 0,-6.57066 3.24266,-12.97066 8.02133,-17.32266 1.024,-0.93867 1.87733,-1.10934 2.816,-1.87734 2.048,-1.62133 3.584,-2.38933 6.31467,-2.38933 3.66933,0 8.448,1.70667 10.83733,4.43733 0.42667,0.85334 2.38933,4.608 2.816,5.46134 0.93867,1.62133 1.45067,2.98666 1.87733,4.864 0.59734,2.21866 5.20534,3.584 6.82667,3.584 1.024,0 1.536,-0.85334 1.87733,-1.70667 v -1.28 c 0,-3.49867 0.512,-6.912 0.512,-10.496 0,-1.62133 -0.256,-3.15733 -0.256,-4.69333 0,-1.96267 0.42667,-3.92534 0.42667,-5.80267 0,-0.59733 -0.17067,-1.792 -0.93867,-1.87733 h -2.56 -1.96266 c -1.10934,0 -2.304,0.0853 -3.24267,0.68266 -0.85333,0.59734 -1.024,3.072 -1.792,3.072 -1.70667,0 -3.24267,-1.62133 -4.52267,-2.38933 -2.21866,-1.28 -4.26666,-1.87733 -6.82666,-2.56 -0.59734,0 -1.19467,0.0853 -1.70667,0.0853 -3.328,0 -5.97333,-0.59733 -9.30133,-0.59733 -5.80267,0 -8.78934,1.792 -13.65334,4.77867 -1.28,0.768 -2.64533,1.024 -3.92533,1.87733 -3.24267,2.13333 -5.71734,5.376 -8.02134,8.448 -0.256,1.792 -1.70666,4.608 -2.13333,6.31467 -1.024,4.26666 -1.62133,8.61866 -1.62133,13.056 v 1.536 c 0.0853,0.85333 0.512,7.08266 0.68266,8.87466 0.512,5.80267 5.376,10.15467 9.89867,13.14134 1.024,0.68267 5.71733,3.66933 6.82667,4.26667 1.024,1.36533 3.49867,2.38933 5.12,2.56 z"
         style="fill:#ffffff"
         id="path49" />
      <path
         d="m 177.60515,389.57995 v 2.38934 c 0,2.38933 0.34134,4.52266 3.49867,4.52266 h 23.296 c 2.13333,-0.256 5.12,-0.17066 5.12,-3.072 v -0.68266 c 0,-0.59734 -0.17067,-3.15734 -0.17067,-3.75467 -0.0853,-0.59733 -0.93866,-1.024 -1.45066,-1.19467 -2.048,-0.68266 -3.328,-1.10933 -5.632,-2.13333 -1.96267,-1.62134 -1.70667,-3.75467 -1.87734,-6.31467 0,-0.0853 0,-0.17067 0,-0.256 0,-0.256 0,-0.59733 0,-1.024 v -3.41333 c 0,-0.17067 -0.256,-1.70667 -0.256,-1.87734 v -2.98666 c 0,-5.12 1.19467,-7.85067 4.69334,-11.776 0.0853,-0.0853 0.256,-0.256 0.256,-0.256 1.19466,-0.68267 3.24266,-1.87734 4.864,-1.87734 h 0.17066 c 0.17067,0 0.34134,0 0.34134,0.256 0,0 -0.17067,0.34134 -0.17067,0.42667 -0.17067,0.256 -1.536,1.87733 -1.70667,2.13333 -0.93866,1.28 -1.19466,3.24267 -1.19466,4.77867 0,1.10933 0.0853,2.13333 0.512,3.15733 1.62133,2.816 5.20533,3.072 8.02133,3.072 4.69333,0 8.02133,-5.03466 8.02133,-9.38666 0,-5.71734 -2.816,-7.68 -7.85066,-9.38667 0,0 -0.34134,-0.17067 -0.42667,-0.256 -0.34133,0 -0.68267,0.0853 -0.93867,0.0853 -1.62133,0 -2.90133,-0.512 -4.52266,-0.512 -3.584,0 -5.20534,3.072 -6.99734,3.072 -1.62133,0 -2.304,-1.96266 -3.75466,-1.96266 -3.92534,0 -7.85067,1.024 -11.776,1.024 -2.048,0 -3.92534,-0.256 -5.97334,-0.256 h -3.41333 c -0.93867,0.256 -1.36533,1.45066 -1.62133,2.304 v 1.792 0.768 c 0,0.93866 0.0853,1.792 0.512,2.64533 0.0853,0.256 0.768,0.93867 0.93866,0.93867 h 4.69334 c 1.792,0 1.87733,4.18133 1.87733,5.71733 v 0.34133 c 0,6.22934 -0.59733,12.62934 -0.93867,18.85867 -0.17066,0.17067 -0.512,0.42667 -0.768,0.42667 -2.73066,0.59733 -5.376,0.17067 -5.376,3.66933 z"
         style="fill:#ffffff"
         id="path51" />
      <path
         d="m 226.58649,378.82795 c 0.256,2.56 0.768,10.24 1.87733,11.94667 2.98667,4.69333 5.888,8.02133 11.776,8.02133 4.18133,0 7.25333,-0.512 11.264,-2.13333 0.256,-0.0853 0.85333,-0.42667 0.93867,-0.42667 l 3.072,-2.816 c 0,-0.0853 0.34133,-0.256 0.42666,-0.256 h 0.17067 c 1.024,0 -0.256,3.49867 4.69333,3.49867 h 0.34134 c 0.34133,0 2.21866,-0.34133 2.56,-0.42667 h 11.008 c 0.512,0 2.64533,-0.17066 3.072,-0.256 1.536,-0.34133 1.87733,-1.792 1.87733,-3.072 0,-1.36533 0,-1.70666 -0.42666,-3.49866 -0.34134,-1.45067 -2.21867,-1.45067 -3.328,-1.62134 -0.34134,-0.0853 -2.304,-0.512 -2.816,-0.93866 -1.36534,-1.36534 -1.45067,-4.35201 -1.62134,-5.88801 v -5.80266 c 0,-6.31467 0.34134,-12.544 1.19467,-18.85867 v -0.59733 c 0,-2.13334 -0.59733,-3.24267 -2.816,-3.41334 -0.0853,0 -0.17067,0 -0.34133,0 -0.85334,0 -2.38934,0.0853 -4.09601,0.0853 -2.21866,0 -4.69333,-0.0853 -5.46133,-0.0853 -0.68267,0 -6.57067,-0.59733 -7.25333,-0.68266 h -0.93867 c -1.62133,0 -2.048,0.34133 -3.328,1.62133 -0.256,0.59733 -0.256,1.45067 -0.256,2.21867 v 0.93866 2.21867 c 0.42667,1.45067 0.42667,1.62133 1.70667,2.13333 0.68266,0 4.01066,0.17067 4.69333,0.256 0.0853,0 1.024,0.0853 1.19467,0.42667 0.17066,1.45067 0.256,2.73067 0.256,4.096 0,1.536 -0.0853,3.15733 -0.0853,4.77867 0,0.256 0,0.59733 0,0.85333 0,0.17067 0,0.256 0,0.42667 0.0853,3.41333 0.512,6.99733 0.512,10.41066 0,0.93867 0,2.048 -0.256,2.98667 -0.42666,1.70667 -5.97333,2.56 -7.424,2.56 -3.84,0 -5.97333,-0.512 -6.22933,-4.69333 0,-0.17067 0.256,-1.28 0.256,-1.45067 0.17067,-0.768 0.256,-4.01067 0.256,-4.69333 v -5.71734 c 0,-0.768 0,-1.36533 0,-1.792 0,-0.17066 0,-0.34133 0,-0.42666 0.0853,-3.75467 0.68267,-7.424 0.68267,-11.17867 v -3.66933 c -0.512,-2.13334 -1.70667,-2.56 -3.84,-2.56 h -1.10934 c -0.256,0 -2.64533,0.256 -2.98666,0.256 -2.98667,-0.0853 -5.80267,-0.93867 -8.78934,-0.93867 -1.70666,0 -1.536,0.256 -2.98666,1.19467 -0.34134,0.17066 -0.768,0.256 -1.10934,0.256 -0.42666,0 -1.024,-0.0853 -1.36533,-0.0853 h -0.0853 c -1.96267,0.17067 -2.13334,2.64534 -2.13334,4.352 v 0.93867 0.93867 c 0,1.70666 0.17067,3.92533 2.13334,3.92533 h 3.49866 c 0.85334,0 1.28,1.28 1.45067,1.87733 0,0.59734 0.17067,3.584 0.17067,4.18134 0,0.85333 0.0853,3.41333 0.0853,5.80266 0,2.13334 -0.0853,4.096 -0.0853,4.77867 z"
         style="fill:#ffffff"
         id="path53" />
      <path
         d="m 285.46383,397.34529 c 0.68266,0.34133 1.87733,0.512 2.38933,0.512 h 12.20267 c 5.29067,0 4.94933,-4.01067 5.632,-8.02134 0,0 0.0853,-0.17066 0.0853,-0.256 l -0.0853,-0.17066 c -0.0853,-0.17067 -0.768,-0.85334 -0.93867,-0.93867 -1.024,-0.17067 -2.38933,-0.256 -3.584,-0.256 h -0.85333 c -0.768,-1.10933 -0.93867,-3.41334 -0.93867,-4.77867 v -0.42667 c 0,-1.36533 0.17067,-8.192 0.256,-9.55733 0.68267,-3.584 0.256,-7.25333 0.93867,-10.83733 0.34133,-1.792 3.072,-1.87734 4.43733,-1.87734 h 0.512 c 0.59734,0 3.75467,0.34134 4.43734,0.42667 1.87733,0.512 3.072,2.64533 3.072,4.43733 0,2.73067 -0.512,5.376 -0.512,8.02134 v 0.256 3.584 1.10933 c 0,0.59733 -0.512,5.71733 -0.68267,7.33867 0,0.17067 -0.17067,1.024 -0.256,1.10933 -0.85333,1.96267 -3.49867,0.256 -3.49867,4.69334 0,1.36533 0,2.13333 0.256,3.584 0.85334,1.024 1.536,1.36533 2.90134,1.36533 3.072,0 6.22933,-0.59733 9.30133,-0.93867 3.66933,-0.42666 7.33867,-0.256 11.008,-0.42666 1.28,-0.34134 1.45067,-1.70667 1.45067,-2.90134 v -1.024 -1.19466 c 0,-0.17067 0,-0.34134 0,-0.42667 v -0.0853 c -0.0853,-1.536 -1.536,-1.62134 -2.56,-1.87734 -1.96267,-0.512 -2.816,-3.49867 -2.816,-5.20533 v -1.536 c 0,-1.62134 0,-3.92534 0.0853,-4.608 v -0.93867 c 0,-0.34133 0.256,-4.26667 0.34133,-5.632 0,-0.17067 0,-0.256 0,-0.42667 0,-0.34133 0,-0.68266 0,-0.93866 v -1.10934 c 0,-1.28 0.0853,-2.56 0.512,-3.584 0.0853,-0.512 1.10934,-2.816 1.36534,-3.328 1.10933,-1.28 2.38933,-1.62133 4.096,-1.62133 4.26666,0 6.74133,5.54667 6.74133,9.216 v 1.10933 c -0.0853,0.768 -0.59733,4.352 -0.68267,5.20534 v 11.008 l -0.256,0.93867 c 0,0 -1.792,1.19466 -2.64533,1.62133 -1.36533,0.85333 -2.048,2.048 -2.048,3.75467 0,0.42666 0.17067,2.47466 0.17067,2.816 0.512,0.768 2.21866,1.45066 3.072,1.70666 2.64533,0.17067 3.84,0.256 6.144,0.256 1.62133,0 3.24266,-0.34133 4.94933,-0.34133 0.256,0 1.792,0.0853 2.13333,0.0853 1.024,0.59734 4.01067,0.68267 5.46134,0.68267 4.26666,0 5.29066,-1.792 5.29066,-5.632 0,-4.69333 -4.69333,-2.38933 -5.888,-6.57067 -0.0853,-1.536 0.0853,-4.608 -0.42666,-6.4 v -11.52 c 0,-9.89867 -4.864,-17.152 -15.18934,-17.152 -3.584,0 -7.59466,1.024 -10.41066,3.328 -1.536,1.19467 -2.64534,3.75467 -4.94934,3.75467 -1.10933,0 -1.87733,-2.38934 -2.64533,-3.072 -2.304,-1.87734 -4.94933,-3.49867 -8.10667,-3.49867 -4.94933,0 -9.38666,1.19467 -12.8,4.94933 -0.768,-0.42666 -0.768,-2.048 -1.62133,-2.64533 -0.93867,-0.59733 -5.03467,-0.68267 -7.76533,-0.68267 h -0.768 c -0.42667,0 -0.768,0 -1.024,0 -0.17067,0 -0.25601,0 -0.34134,0 -2.21867,-0.0853 -4.18133,-0.512 -6.4,-0.512 -4.94933,0 -7.68,0.68267 -7.68,6.144 v 1.45067 c 0.256,0.256 1.10933,1.024 1.45067,1.024 h 3.92533 c 0.0853,0 0.34133,0.42667 0.512,0.59733 0.0853,0.0853 0.256,0.42667 0.256,0.512 l 1.10933,13.824 c 0,0.0853 0,0.17067 0,0.256 0,0.17067 0,0.34134 0,0.512 0,2.21867 0.512,4.43734 0.512,6.57067 0,1.28 0,2.304 -0.256,3.75467 -0.42666,2.90133 -6.99733,1.792 -6.99733,5.12 v 3.75467 c 0,1.792 2.98667,2.47466 4.18133,2.56 0.34134,0 1.45067,0.0853 2.47467,0.0853 0.85333,0 1.70667,-0.0853 1.96267,-0.0853 z"
         style="fill:#ffffff"
         id="path55" />
      <path
         d="m 363.14783,393.67595 c 1.28,2.98667 3.66933,2.73067 6.57066,3.49867 0.256,0.0853 2.73067,0.85333 3.07201,0.93867 h 1.45066 1.536 c 2.98667,0 4.52267,-0.256 5.20534,-4.01067 0.0853,-0.256 0.42666,-0.256 0.59733,-0.256 h 0.34133 c 4.94934,1.87733 8.448,3.328 13.65334,3.328 4.94933,0 9.38666,-4.43733 12.45866,-7.50933 2.47467,-4.94934 4.43734,-9.81334 4.43734,-15.36001 0,-6.05866 -0.768,-11.69066 -3.75467,-17.06666 0,-0.0853 -0.17067,-0.256 -0.256,-0.256 -0.85333,-0.68267 -1.536,-0.59734 -2.56,-1.19467 -1.28,-0.68267 -1.62133,-1.792 -2.56,-2.816 -1.536,-1.536 -3.15733,-2.73067 -5.20533,-3.49867 -0.68267,-0.34133 -2.90134,-0.93866 -3.072,-0.93866 h -6.57067 c -1.45067,0.59733 -3.072,0.512 -4.43733,1.36533 -0.93867,0.59733 -3.66934,3.328 -4.608,3.328 -0.68267,0 -0.768,-0.59733 -0.768,-1.19467 0,-0.768 0.256,-2.816 0.42666,-3.75466 v -11.776 c 0,-1.792 -1.19466,-3.24267 -3.072,-3.24267 h -7.50933 c -2.98667,-0.93867 -6.31467,-1.45067 -9.38667,-1.87733 0,0 -0.42667,-0.0853 -0.59733,-0.0853 -3.49867,0 -4.352,2.13334 -4.352,5.376 0,1.87734 0.0853,3.328 1.87733,4.352 0.34133,0.17067 1.10933,0.512 1.19467,0.512 h 4.69333 l 0.42667,0.59734 c 0.0853,0.0853 0.42666,1.62133 0.512,2.13333 0.256,1.62133 0.256,3.328 0.256,4.94933 0,0.0853 0,0.17067 0,0.256 v 0.34134 1.28 c -0.0853,0.85333 -0.512,7.59466 -0.512,8.448 0,2.73066 0.17066,15.36 0.17066,18.09066 v 1.45067 c 0,1.62133 0.256,9.216 0.34134,10.83734 0,0.0853 0,0.17066 0,0.256 0,0.17066 0,0.512 0,0.85333 z m 15.95733,-22.272 c 0,-3.15733 0.17067,-6.48533 1.45067,-9.472 0.34133,-0.42667 2.13333,-2.21867 2.56,-2.64533 0.256,-0.256 0.93867,-0.768 1.36533,-0.93867 h 1.36534 c 5.97333,0 8.10666,10.15467 8.10666,14.50667 v 1.45066 c 0,4.01067 -0.17066,10.41067 -3.584,12.28801 -0.256,0.17066 -1.28,0.68266 -1.36533,0.68266 h -0.256 c -3.24267,0 -5.29067,-3.584 -6.57067,-6.05867 -0.42666,-0.85333 -1.19466,-1.792 -1.45066,-2.64533 -0.512,-1.87733 -1.10934,-4.864 -1.62134,-6.99733 z"
         style="fill:#ffffff"
         id="path57" />
      <path
         d="m 415.57048,397.34529 c 5.632,0 10.66667,0.256 16.04267,0.256 h 1.024 0.34134 c 1.024,0 5.97333,-0.59734 7.08266,-0.68267 1.10934,-0.34133 1.36534,-1.62133 1.36534,-2.64533 0,-10.15467 -5.888,-6.22934 -6.31467,-8.44801 l -0.68267,-3.75466 c 0,-2.21867 0.0853,-4.352 0.0853,-6.656 0,-4.26667 -0.0853,-8.61867 -0.34134,-12.88534 -0.256,-4.608 -0.768,-9.38666 -0.768,-14.08 0,-3.92533 0.85334,-7.50933 1.45067,-11.264 v -0.59733 c 0,-1.96267 -1.62133,-2.38933 -3.24267,-2.47467 -0.85333,0 -5.632,-0.0853 -6.82667,-0.0853 h -0.93866 c -1.19467,0 -5.97334,-0.0853 -6.82667,-0.17067 -1.28,0 -2.38933,-0.42666 -3.66933,-0.42666 h -0.512 c -0.34134,0 -0.512,0 -1.024,0.256 -2.73067,1.28 -2.816,1.87733 -2.816,4.69333 v 0.42667 1.62133 c 2.56,2.13333 8.96,0.0853 8.96,4.69333 0,5.71734 -0.512,11.43467 -0.512,17.23734 0,4.01066 0.256,7.936 0.256,11.94666 0,3.072 -0.34134,5.54667 -0.34134,8.61867 0,0.59733 0.0853,1.28 0.0853,1.96267 v 0.0853 c 0,3.24267 -5.80267,1.792 -6.99734,3.92534 -0.512,0.85333 -0.512,4.77866 -0.512,6.22933 v 1.024 c 0.68267,1.10933 4.43734,1.19467 5.632,1.19467 z"
         style="fill:#ffffff"
         id="path59" />
      <path
         d="m 460.00117,395.38262 c 3.92534,0.512 6.99734,0.93867 10.66667,0.93867 2.56,0 7.08267,-1.024 9.13067,-2.38934 3.41333,-2.304 7.936,-7.08266 7.936,-11.60533 v -1.28 c -1.28,-1.792 -1.70667,-1.19467 -3.75467,-1.45067 -0.256,0 -2.56,-0.42667 -2.816,-0.42667 h -0.256 c -3.584,0 -2.56,2.98667 -4.18133,4.69334 -1.96267,2.13333 -3.15734,3.75467 -5.97334,3.75467 -3.328,0 -4.94933,-0.256 -7.68,-2.13334 -3.84,-2.56 -4.69333,-2.56 -4.69333,-7.85067 v -1.536 c 0.0853,-0.34133 0.42667,-0.68266 0.68267,-0.93866 h 5.46133 c 0.17067,0 1.19467,-0.17067 1.36533,-0.256 1.792,0.0853 3.584,0.0853 5.376,0.0853 4.608,0 9.13067,-0.17067 13.65334,-0.256 0.512,0 2.64533,-0.17067 3.072,-0.256 1.28,-0.34133 1.70666,-2.13333 1.70666,-3.24267 0,-4.94933 -1.19466,-9.984 -4.26666,-13.90933 -1.19467,-1.45067 -2.048,-2.98667 -3.584,-4.01067 -0.34134,-0.256 -3.328,-2.304 -3.75467,-2.56 0,-0.0853 -0.34133,-0.256 -0.42667,-0.256 -1.96266,-0.68266 -3.92533,-0.93866 -5.888,-1.36533 -1.792,-0.42667 -3.41333,-0.768 -5.29066,-0.768 -2.98667,0 -5.29067,1.87733 -8.10667,2.38933 -0.256,0 -2.56,0.17067 -2.816,0.256 -1.19467,0.17067 -1.19467,0.59734 -2.13333,1.10934 -0.256,0.17066 -2.56,1.45066 -2.81601,1.70666 -4.52266,3.328 -8.448,13.22667 -8.448,18.85867 0,5.888 3.15734,16.46934 8.96001,19.62667 0.256,0.17067 2.73066,1.19467 3.49866,1.45067 1.70667,0.59733 3.584,1.19466 5.376,1.62133 z m 0,-29.09867 c -0.256,-0.34133 -0.256,-0.512 -0.256,-0.85333 0,-2.21867 1.62134,-4.94934 3.328,-6.22934 0.68267,-0.512 1.87734,-0.512 2.73067,-0.512 h 0.256 c 3.75467,0 6.48533,3.66934 6.48533,7.25334 0,0.17066 -0.0853,0.512 -0.0853,0.512 l -0.68267,0.256 h -1.536 c -3.41333,0 -6.74133,-0.17067 -10.24,-0.42667 z"
         style="fill:#ffffff"
         id="path61" />
    </g>
  </g>
</svg>
