<svg xmlns="http://www.w3.org/2000/svg" xmlns:xlink="http://www.w3.org/1999/xlink" preserveAspectRatio="xMidYMid" width="500" height="500" viewBox="0 0 500 500">
  <defs>
    <style>
      .cls-1 {
        fill: #fff;
        stroke: #000;
        stroke-width: 1px;
        fill-rule: evenodd;
      }
    </style>
  </defs>
  <g>
    <path d="M113.000,105.000 L388.000,105.000 C399.046,105.000 408.000,113.954 408.000,125.000 L408.000,150.168 C408.000,161.214 399.046,170.168 388.000,170.168 L113.000,170.168 C101.954,170.168 93.000,161.214 93.000,150.168 L93.000,125.000 C93.000,113.954 101.954,105.000 113.000,105.000 Z" class="cls-1"/>
    <path d="M113.000,218.416 L388.000,218.416 C399.046,218.416 408.000,227.370 408.000,238.416 L408.000,263.584 C408.000,274.630 399.046,283.584 388.000,283.584 L113.000,283.584 C101.954,283.584 93.000,274.630 93.000,263.584 L93.000,238.416 C93.000,227.370 101.954,218.416 113.000,218.416 Z" class="cls-1"/>
    <path d="M113.000,331.832 L388.000,331.832 C399.046,331.832 408.000,340.786 408.000,351.832 L408.000,377.000 C408.000,388.046 399.046,397.000 388.000,397.000 L113.000,397.000 C101.954,397.000 93.000,388.046 93.000,377.000 L93.000,351.832 C93.000,340.786 101.954,331.832 113.000,331.832 Z" class="cls-1"/>
  </g>
</svg>
